<?xml version="1.0" encoding="utf-8"?>
<!-- Generator: Adobe Illustrator 17.0.0, SVG Export Plug-In . SVG Version: 6.00 Build 0)  -->
<!DOCTYPE svg PUBLIC "-//W3C//DTD SVG 1.1//EN" "http://www.w3.org/Graphics/SVG/1.1/DTD/svg11.dtd">
<svg version="1.1" id="Layer_1" xmlns="http://www.w3.org/2000/svg" xmlns:xlink="http://www.w3.org/1999/xlink" x="0px" y="0px"
	 width="148.449px" height="111.634px" viewBox="14.413 7.128 148.449 111.634"
	 enable-background="new 14.413 7.128 148.449 111.634" xml:space="preserve">
<g>
	<g>
		<path fill="#E1E1E1" d="M14.465,117.936l7.074-15.13c0.052-0.153,0.207-0.258,0.362-0.258h0.207c0.207,0,0.309,0.104,0.361,0.258
			l6.971,15.13c0.155,0.311-0.051,0.568-0.362,0.568h-1.962c-0.361,0-0.516-0.155-0.671-0.465l-1.136-2.428h-6.712l-1.136,2.428
			c-0.103,0.207-0.31,0.465-0.672,0.465h-1.962C14.518,118.504,14.311,118.246,14.465,117.936z M24.276,113.133l-2.272-4.956h-0.052
			l-2.22,4.956H24.276z"/>
		<path fill="#E1E1E1" d="M36.1,103.219c0-0.206,0.207-0.413,0.413-0.413h6.506c2.737,0,4.957,2.169,4.957,4.803
			c0,2.065-1.394,3.77-3.356,4.545l3.098,5.68c0.155,0.31,0,0.671-0.361,0.671h-2.375c-0.207,0-0.31-0.104-0.361-0.207l-2.995-5.938
			h-2.53v5.732c0,0.206-0.207,0.413-0.413,0.413h-2.066c-0.257,0-0.413-0.207-0.413-0.413V103.22L36.1,103.219L36.1,103.219z
			 M42.761,109.984c1.188,0,2.272-1.033,2.272-2.272c0-1.188-1.033-2.168-2.272-2.168h-3.718v4.491h3.718V109.984z"/>
		<path fill="#E1E1E1" d="M57.683,105.492h-3.511c-0.258,0-0.413-0.207-0.413-0.413v-1.86c0-0.206,0.207-0.413,0.413-0.413h9.914
			c0.258,0,0.414,0.207,0.414,0.413v1.86c0,0.206-0.207,0.413-0.414,0.413h-3.459v12.599c0,0.206-0.207,0.413-0.414,0.413h-2.116
			c-0.207,0-0.414-0.207-0.414-0.413L57.683,105.492L57.683,105.492z"/>
		<path fill="#E1E1E1" d="M71.418,103.219c0-0.206,0.207-0.413,0.413-0.413h2.117c0.258,0,0.413,0.207,0.413,0.413v5.938h7.384
			v-5.938c0-0.206,0.207-0.413,0.414-0.413h2.065c0.206,0,0.413,0.207,0.413,0.413v14.872c0,0.206-0.207,0.413-0.413,0.413h-2.065
			c-0.259,0-0.414-0.207-0.414-0.413v-6.196h-7.384v6.196c0,0.206-0.207,0.413-0.413,0.413h-2.117c-0.206,0-0.413-0.207-0.413-0.413
			V103.219z"/>
		<path fill="#E1E1E1" d="M99.972,102.601c4.543,0,8.158,3.614,8.158,8.106s-3.615,8.055-8.158,8.055
			c-4.544,0-8.158-3.563-8.158-8.055S95.428,102.601,99.972,102.601z M99.972,115.818c2.84,0,5.215-2.323,5.215-5.162
			c0-2.841-2.375-5.164-5.215-5.164s-5.215,2.375-5.215,5.164C94.757,113.495,97.132,115.818,99.972,115.818z"/>
		<path fill="#E1E1E1" d="M114.997,103.219c0-0.206,0.206-0.413,0.413-0.413h2.169c0.259,0,0.412,0.207,0.412,0.413v9.192
			c0,1.909,1.292,3.407,3.307,3.407c2.013,0,3.304-1.498,3.304-3.407v-9.192c0-0.206,0.205-0.413,0.413-0.413h2.169
			c0.207,0,0.412,0.207,0.412,0.413v9.348c0,3.407-2.736,6.195-6.351,6.195c-3.563,0-6.3-2.737-6.3-6.195v-9.348H114.997z"/>
		<path fill="#E1E1E1" d="M135.135,116.335l0.826-1.395c0.207-0.309,0.569-0.309,0.775-0.154c0.103,0.052,1.962,1.395,3.407,1.395
			c1.188,0,2.065-0.774,2.065-1.705c0-1.135-0.981-1.909-2.891-2.685c-2.118-0.878-4.287-2.22-4.287-4.853
			c0-2.015,1.499-4.286,5.112-4.286c2.323,0,4.079,1.187,4.543,1.497c0.207,0.154,0.311,0.517,0.156,0.723l-0.878,1.291
			c-0.207,0.258-0.518,0.465-0.775,0.258c-0.207-0.103-1.909-1.239-3.149-1.239c-1.291,0-2.013,0.877-2.013,1.55
			c0,1.032,0.825,1.755,2.684,2.529c2.221,0.878,4.751,2.169,4.751,5.06c0,2.324-2.015,4.441-5.215,4.441
			c-2.84,0-4.544-1.342-5.009-1.755C135.031,116.8,134.929,116.695,135.135,116.335z"/>
		<path fill="#E1E1E1" d="M152.795,103.219c0-0.206,0.205-0.413,0.412-0.413h9.242c0.259,0,0.413,0.207,0.413,0.413v1.86
			c0,0.206-0.206,0.413-0.413,0.413h-6.713v3.665h5.629c0.207,0,0.413,0.208,0.413,0.414v1.858c0,0.258-0.206,0.413-0.413,0.413
			h-5.629v3.925h6.713c0.259,0,0.413,0.206,0.413,0.413v1.858c0,0.207-0.206,0.413-0.413,0.413h-9.242
			c-0.259,0-0.412-0.206-0.412-0.413V103.219z"/>
	</g>
	<g>
		<path fill="#E1E1E1" d="M88.612,7.128c-21.221,0-38.416,17.194-38.416,38.416S67.391,83.96,88.612,83.96
			c21.222,0,38.416-17.193,38.416-38.416C127.08,24.323,109.834,7.128,88.612,7.128z M106.322,59.279c-1.238,0-0.929,0-4.44,0
			c-0.566,0-1.187-0.413-1.445-0.929L88.819,38.677L76.788,58.35c-0.258,0.516-0.826,0.878-1.498,0.878c-3.511,0-3.098,0-4.44,0
			c-0.878,0-1.446-0.568-1.549-1.239c-0.103-0.361-0.051-0.826,0.207-1.239L74,49.572l13.271-21.583
			c0.258-0.413,0.929-1.291,1.445-1.291h0.412c0.518,0,1.188,0.827,1.447,1.24l17.142,28.656c0.104,0.155,0.155,0.259,0.207,0.413
			c0.206,0.516,0.104,1.084-0.207,1.498C107.406,58.969,106.941,59.279,106.322,59.279z"/>
	</g>
</g>
</svg>
