<?xml version="1.0" encoding="utf-8"?>
<!-- Generator: Adobe Illustrator 16.0.0, SVG Export Plug-In . SVG Version: 6.00 Build 0)  -->
<!DOCTYPE svg PUBLIC "-//W3C//DTD SVG 1.1//EN" "http://www.w3.org/Graphics/SVG/1.1/DTD/svg11.dtd">
<svg version="1.1" id="Layer_1" xmlns="http://www.w3.org/2000/svg" xmlns:xlink="http://www.w3.org/1999/xlink" x="0px" y="0px"
	 width="148.448px" height="111.634px" viewBox="14.413 7.128 148.448 111.634"
	 enable-background="new 14.413 7.128 148.448 111.634" xml:space="preserve">
<g>
	<g>
		<path fill="#343434" d="M14.465,117.936l7.074-15.13c0.052-0.153,0.207-0.259,0.362-0.259h0.207c0.207,0,0.309,0.104,0.361,0.259
			l6.971,15.13c0.155,0.311-0.051,0.568-0.362,0.568h-1.962c-0.361,0-0.516-0.155-0.671-0.465l-1.136-2.429h-6.712l-1.136,2.429
			c-0.103,0.207-0.31,0.465-0.672,0.465h-1.962C14.518,118.504,14.311,118.247,14.465,117.936z M24.276,113.133l-2.272-4.957h-0.052
			l-2.22,4.957H24.276z"/>
		<path fill="#343434" d="M36.1,103.219c0-0.206,0.207-0.413,0.413-0.413h6.506c2.737,0,4.957,2.169,4.957,4.803
			c0,2.065-1.394,3.771-3.356,4.545l3.098,5.681c0.155,0.31,0,0.67-0.361,0.67h-2.375c-0.207,0-0.31-0.104-0.361-0.207l-2.995-5.938
			h-2.53v5.732c0,0.205-0.207,0.412-0.413,0.412h-2.066c-0.257,0-0.413-0.207-0.413-0.412v-14.873H36.1L36.1,103.219z
			 M42.761,109.984c1.188,0,2.272-1.032,2.272-2.272c0-1.188-1.033-2.168-2.272-2.168h-3.718v4.492h3.718V109.984z"/>
		<path fill="#343434" d="M57.683,105.493h-3.511c-0.258,0-0.413-0.207-0.413-0.414v-1.859c0-0.206,0.207-0.413,0.413-0.413h9.914
			c0.258,0,0.414,0.207,0.414,0.413v1.859c0,0.207-0.207,0.414-0.414,0.414h-3.459v12.598c0,0.207-0.207,0.414-0.414,0.414h-2.116
			c-0.207,0-0.414-0.207-0.414-0.414V105.493L57.683,105.493z"/>
		<path fill="#343434" d="M71.418,103.219c0-0.206,0.207-0.413,0.413-0.413h2.117c0.258,0,0.413,0.207,0.413,0.413v5.938h7.384
			v-5.938c0-0.206,0.207-0.413,0.414-0.413h2.065c0.205,0,0.412,0.207,0.412,0.413v14.871c0,0.207-0.207,0.414-0.412,0.414h-2.065
			c-0.259,0-0.414-0.207-0.414-0.414v-6.195h-7.384v6.195c0,0.207-0.207,0.414-0.413,0.414h-2.117c-0.206,0-0.413-0.207-0.413-0.414
			V103.219z"/>
		<path fill="#343434" d="M99.973,102.601c4.543,0,8.157,3.614,8.157,8.106s-3.614,8.055-8.157,8.055
			c-4.545,0-8.158-3.563-8.158-8.055S95.428,102.601,99.973,102.601z M99.973,115.818c2.84,0,5.215-2.323,5.215-5.161
			c0-2.842-2.375-5.164-5.215-5.164c-2.841,0-5.216,2.375-5.216,5.164C94.757,113.495,97.132,115.818,99.973,115.818z"/>
		<path fill="#343434" d="M114.997,103.219c0-0.206,0.206-0.413,0.413-0.413h2.169c0.259,0,0.412,0.207,0.412,0.413v9.191
			c0,1.909,1.292,3.407,3.307,3.407c2.013,0,3.304-1.498,3.304-3.407v-9.191c0-0.206,0.205-0.413,0.414-0.413h2.168
			c0.207,0,0.412,0.207,0.412,0.413v9.348c0,3.407-2.736,6.195-6.351,6.195c-3.563,0-6.3-2.737-6.3-6.195v-9.348H114.997z"/>
		<path fill="#343434" d="M135.135,116.334l0.826-1.395c0.207-0.309,0.568-0.309,0.775-0.154c0.103,0.053,1.961,1.396,3.406,1.396
			c1.188,0,2.065-0.774,2.065-1.705c0-1.136-0.981-1.909-2.892-2.685c-2.117-0.879-4.287-2.221-4.287-4.854
			c0-2.016,1.5-4.286,5.113-4.286c2.322,0,4.078,1.187,4.543,1.497c0.207,0.154,0.311,0.518,0.155,0.723l-0.878,1.291
			c-0.207,0.258-0.518,0.465-0.775,0.258c-0.207-0.103-1.908-1.238-3.148-1.238c-1.291,0-2.014,0.877-2.014,1.55
			c0,1.032,0.826,1.755,2.685,2.528c2.222,0.879,4.751,2.17,4.751,5.061c0,2.324-2.016,4.441-5.215,4.441
			c-2.84,0-4.544-1.342-5.01-1.756C135.031,116.799,134.93,116.695,135.135,116.334z"/>
		<path fill="#343434" d="M152.795,103.219c0-0.206,0.205-0.413,0.412-0.413h9.242c0.259,0,0.412,0.207,0.412,0.413v1.859
			c0,0.207-0.205,0.414-0.412,0.414h-6.713v3.664h5.629c0.207,0,0.412,0.209,0.412,0.414v1.858c0,0.258-0.205,0.413-0.412,0.413
			h-5.629v3.925h6.713c0.259,0,0.412,0.206,0.412,0.413v1.857c0,0.207-0.205,0.414-0.412,0.414h-9.242
			c-0.26,0-0.412-0.207-0.412-0.414V103.219z"/>
	</g>
	<g>
		<path fill="#343434" d="M88.611,7.128c-21.22,0-38.416,17.194-38.416,38.416c0,21.222,17.195,38.416,38.416,38.416
			c21.223,0,38.416-17.192,38.416-38.416C127.08,24.323,109.834,7.128,88.611,7.128z M106.322,59.279c-1.238,0-0.93,0-4.44,0
			c-0.565,0-1.187-0.413-1.444-0.929L88.818,38.677L76.788,58.35c-0.259,0.516-0.826,0.878-1.498,0.878c-3.511,0-3.098,0-4.44,0
			c-0.878,0-1.446-0.567-1.549-1.239c-0.103-0.361-0.051-0.826,0.207-1.238L74,49.572l13.271-21.583
			c0.258-0.413,0.929-1.291,1.444-1.291h0.412c0.519,0,1.188,0.827,1.447,1.24l17.142,28.656c0.104,0.154,0.155,0.259,0.207,0.412
			c0.206,0.517,0.104,1.084-0.207,1.498C107.406,58.969,106.941,59.279,106.322,59.279z"/>
	</g>
</g>
</svg>
