<?xml version="1.0" encoding="utf-8"?>
<!-- Generator: Adobe Illustrator 17.0.0, SVG Export Plug-In . SVG Version: 6.00 Build 0)  -->
<!DOCTYPE svg PUBLIC "-//W3C//DTD SVG 1.1//EN" "http://www.w3.org/Graphics/SVG/1.1/DTD/svg11.dtd">
<svg version="1.1" id="Layer_1" xmlns="http://www.w3.org/2000/svg" xmlns:xlink="http://www.w3.org/1999/xlink" x="0px" y="0px"
	 width="500.765px" height="701.06px" viewBox="0 0 500.765 701.06" enable-background="new 0 0 500.765 701.06"
	 xml:space="preserve">
<path fill-rule="evenodd" clip-rule="evenodd" fill="#E06037" d="M100.153,0h100.153v100.143H100.153V0z"/>
<path fill-rule="evenodd" clip-rule="evenodd" fill="#E06037" d="M200.306,100.143h100.153v100.153H200.306V100.143z"/>
<path fill-rule="evenodd" clip-rule="evenodd" fill="#E06037" d="M300.459,200.296h100.153v100.153H300.459V200.296z"/>
<path fill-rule="evenodd" clip-rule="evenodd" fill="#E06037" d="M400.612,300.449h100.153v100.153H400.612V300.449z"/>
<path fill-rule="evenodd" clip-rule="evenodd" fill="#E06037" d="M300.459,400.602h100.153v100.153H300.459V400.602z"/>
<path fill-rule="evenodd" clip-rule="evenodd" fill="#E06037" d="M200.306,500.755h100.153v100.153H200.306V500.755z"/>
<path fill-rule="evenodd" clip-rule="evenodd" fill="#E06037" d="M100.153,600.907h100.153V701.06H100.153V600.907z"/>
<path fill-rule="evenodd" clip-rule="evenodd" fill="#E06037" d="M0,0h100.153v100.143H0V0z"/>
<path fill-rule="evenodd" clip-rule="evenodd" fill="#E06037" d="M100.153,100.143h100.153v100.153H100.153V100.143z"/>
<path fill-rule="evenodd" clip-rule="evenodd" fill="#E06037" d="M200.306,200.296h100.153v100.153H200.306V200.296z"/>
<path fill-rule="evenodd" clip-rule="evenodd" fill="#E06037" d="M300.459,300.449h100.153v100.153H300.459V300.449z"/>
<path fill-rule="evenodd" clip-rule="evenodd" fill="#E06037" d="M200.306,400.602h100.153v100.153H200.306V400.602z"/>
<path fill-rule="evenodd" clip-rule="evenodd" fill="#E06037" d="M100.153,500.755h100.153v100.153H100.153V500.755z"/>
<path fill-rule="evenodd" clip-rule="evenodd" fill="#E06037" d="M0,600.907h100.153V701.06H0V600.907z"/>
</svg>
